<?xml version="1.0" encoding="UTF-8" standalone="no"?>
<!-- Created with Inkscape (http://www.inkscape.org/) -->

<svg
   xmlns:dc="http://purl.org/dc/elements/1.1/"
   xmlns:cc="http://creativecommons.org/ns#"
   xmlns:rdf="http://www.w3.org/1999/02/22-rdf-syntax-ns#"
   xmlns:svg="http://www.w3.org/2000/svg"
   xmlns="http://www.w3.org/2000/svg"
   xmlns:sodipodi="http://sodipodi.sourceforge.net/DTD/sodipodi-0.dtd"
   xmlns:inkscape="http://www.inkscape.org/namespaces/inkscape"
   width="70mm"
   height="60mm"
   viewBox="0 0 70 60"
   version="1.1"
   id="svg8"
   inkscape:version="0.92.2 5c3e80d, 2017-08-06"
   sodipodi:docname="keyboard.svg"
   inkscape:export-filename="/home/trionprog/rust/transaction_test/images/keyboard.png"
   inkscape:export-xdpi="96"
   inkscape:export-ydpi="96">
  <defs
     id="defs2" />
  <sodipodi:namedview
     id="base"
     pagecolor="#ffffff"
     bordercolor="#666666"
     borderopacity="1.0"
     inkscape:pageopacity="0.0"
     inkscape:pageshadow="2"
     inkscape:zoom="1.979899"
     inkscape:cx="81.129244"
     inkscape:cy="114.50271"
     inkscape:document-units="mm"
     inkscape:current-layer="layer1"
     showgrid="true"
     inkscape:snap-global="false"
     inkscape:window-width="1920"
     inkscape:window-height="992"
     inkscape:window-x="0"
     inkscape:window-y="0"
     inkscape:window-maximized="1">
    <inkscape:grid
       type="xygrid"
       id="grid815"
       units="mm"
       spacingx="0.5"
       spacingy="0.5" />
  </sodipodi:namedview>
  <metadata
     id="metadata5">
    <rdf:RDF>
      <cc:Work
         rdf:about="">
        <dc:format>image/svg+xml</dc:format>
        <dc:type
           rdf:resource="http://purl.org/dc/dcmitype/StillImage" />
        <dc:title></dc:title>
      </cc:Work>
    </rdf:RDF>
  </metadata>
  <g
     inkscape:label="Layer 1"
     inkscape:groupmode="layer"
     id="layer1"
     transform="translate(0,-237)">
    <g
       id="g4730"
       transform="translate(1.3363473,241.61165)">
      <path
         sodipodi:nodetypes="cccc"
         inkscape:connector-curvature="0"
         id="path4677"
         d="M 45.600544,29.271137 45.97852,25.873443 C 47.206947,23.617144 49.858717,19.42225 46.968334,15.616574 43.020033,11.602706 47.112359,6.166456 50.46658,3.2030419"
         style="fill:none;fill-rule:evenodd;stroke:#222222;stroke-width:1.39999998;stroke-linecap:butt;stroke-linejoin:miter;stroke-miterlimit:4;stroke-dasharray:none;stroke-opacity:1" />
      <path
         inkscape:connector-curvature="0"
         id="rect817"
         d="m 3.3458274,23.031153 c -0.8310001,0 -1.4996501,0.669166 -1.4996501,1.500167 v 23.499857 c 0,0.830998 0.66865,1.500166 1.4996501,1.500166 H 64.346237 c 0.831,0 1.49965,-0.669168 1.49965,-1.500166 V 24.53132 c 0,-0.831001 -0.66865,-1.500169 -1.49965,-1.500167 z m 4.4999836,2.500104 h 4.499984 c 0.277,0 0.500228,0.223229 0.500228,0.500229 v 4.499983 c 0,0.277 -0.223228,0.499711 -0.500228,0.499711 H 7.845811 c -0.277,0 -0.4997112,-0.222711 -0.4997112,-0.499711 v -4.499983 c 0,-0.277 0.2227112,-0.500229 0.4997112,-0.500229 z m 8.000028,0 h 4.499984 c 0.277,0 0.500229,0.223229 0.500229,0.500229 v 4.499983 c 0,0.277 -0.223229,0.499711 -0.500229,0.499711 h -4.499984 c -0.277,0 -0.499711,-0.222711 -0.499711,-0.499711 v -4.499983 c 0,-0.277 0.222711,-0.500229 0.499711,-0.500229 z m 8.000029,0 h 4.499983 c 0.277001,0 0.500227,0.223229 0.500227,0.500229 v 4.499983 c 0,0.277 -0.223226,0.499711 -0.500227,0.499711 h -4.499983 c -0.277,0 -0.49971,-0.222711 -0.49971,-0.499711 v -4.499983 c 0,-0.277 0.22271,-0.500229 0.49971,-0.500229 z m 8.000029,0 h 4.499983 c 0.277001,0 0.500227,0.223229 0.500227,0.500229 v 4.499983 c 0,0.277 -0.223226,0.499711 -0.500227,0.499711 h -4.499983 c -0.277,0 -0.499713,-0.222711 -0.499713,-0.499711 v -4.499983 c 0,-0.277 0.222713,-0.500229 0.499713,-0.500229 z m 8.000027,0 h 4.499985 c 0.277,0 0.500227,0.223229 0.500227,0.500229 v 4.499983 c 0,0.277 -0.223227,0.499711 -0.500227,0.499711 h -4.499985 c -0.277001,0 -0.499711,-0.222711 -0.499711,-0.499711 v -4.499983 c 0,-0.277 0.22271,-0.500229 0.499711,-0.500229 z m 8.000028,0 h 4.499983 c 0.277001,0 0.50023,0.223229 0.50023,0.500229 v 4.499983 c 0,0.277 -0.223229,0.499711 -0.50023,0.499711 h -4.499983 c -0.277,0 -0.500226,-0.222711 -0.500226,-0.499711 v -4.499983 c 0,-0.277 0.223226,-0.500229 0.500226,-0.500229 z m 8.000029,0 h 4.499983 c 0.277001,0 0.50023,0.223229 0.50023,0.500229 v 4.499983 c 0,0.277 -0.223229,0.499711 -0.50023,0.499711 h -4.499983 c -0.277,0 -0.500226,-0.222711 -0.500226,-0.499711 v -4.499983 c 0,-0.277 0.223226,-0.500229 0.500226,-0.500229 z m -48.00017,8.000029 h 4.499984 c 0.277,0 0.500228,0.22271 0.500228,0.49971 v 4.500502 c 0,0.277 -0.223228,0.49971 -0.500228,0.49971 H 7.845811 c -0.277,0 -0.4997112,-0.22271 -0.4997112,-0.49971 v -4.500502 c 0,-0.277 0.2227112,-0.49971 0.4997112,-0.49971 z m 8.000028,0 h 4.499984 c 0.277,0 0.500229,0.22271 0.500229,0.49971 v 4.500502 c 0,0.277 -0.223229,0.49971 -0.500229,0.49971 h -4.499984 c -0.277,0 -0.499711,-0.22271 -0.499711,-0.49971 v -4.500502 c 0,-0.277 0.222711,-0.49971 0.499711,-0.49971 z m 8.000029,0 h 4.499983 c 0.277001,0 0.500227,0.22271 0.500227,0.49971 v 4.500502 c 0,0.277 -0.223226,0.49971 -0.500227,0.49971 h -4.499983 c -0.277,0 -0.49971,-0.22271 -0.49971,-0.49971 v -4.500502 c 0,-0.277 0.22271,-0.49971 0.49971,-0.49971 z m 8.000029,0 h 4.499983 c 0.277001,0 0.500227,0.22271 0.500227,0.49971 v 4.500502 c 0,0.277 -0.223226,0.49971 -0.500227,0.49971 h -4.499983 c -0.277,0 -0.499713,-0.22271 -0.499713,-0.49971 v -4.500502 c 0,-0.277 0.222713,-0.49971 0.499713,-0.49971 z m 8.000027,0 h 4.499985 c 0.277,0 0.500227,0.22271 0.500227,0.49971 v 4.500502 c 0,0.277 -0.223227,0.49971 -0.500227,0.49971 h -4.499985 c -0.277001,0 -0.499711,-0.22271 -0.499711,-0.49971 v -4.500502 c 0,-0.277 0.22271,-0.49971 0.499711,-0.49971 z m 8.000028,0 h 12.500012 c 0.277001,0 0.50023,0.22271 0.50023,0.49971 v 4.500502 c 0,0.277 -0.223229,0.49971 -0.50023,0.49971 H 47.845952 c -0.277,0 -0.500226,-0.22271 -0.500226,-0.49971 v -4.500502 c 0,-0.277 0.223226,-0.49971 0.500226,-0.49971 z M 7.845811,41.531315 h 4.499984 c 0.277,0 0.500228,0.22271 0.500228,0.49971 v 4.499983 c 0,0.277 -0.223228,0.500229 -0.500228,0.500229 H 7.845811 c -0.277,0 -0.4997112,-0.223229 -0.4997112,-0.500229 v -4.499983 c 0,-0.277 0.2227112,-0.49971 0.4997112,-0.49971 z m 8.000028,0 h 4.499984 c 0.277,0 0.500229,0.22271 0.500229,0.49971 v 4.499983 c 0,0.277 -0.223229,0.500229 -0.500229,0.500229 h -4.499984 c -0.277,0 -0.499711,-0.223229 -0.499711,-0.500229 v -4.499983 c 0,-0.277 0.222711,-0.49971 0.499711,-0.49971 z m 8.000029,0 h 20.500041 c 0.277,0 0.500227,0.22271 0.500227,0.49971 v 4.499983 c 0,0.277 -0.223227,0.500229 -0.500227,0.500229 H 23.845868 c -0.277,0 -0.49971,-0.223229 -0.49971,-0.500229 v -4.499983 c 0,-0.277 0.22271,-0.49971 0.49971,-0.49971 z m 24.000084,0 h 4.499983 c 0.277001,0 0.50023,0.22271 0.50023,0.49971 v 4.499983 c 0,0.277 -0.223229,0.500229 -0.50023,0.500229 h -4.499983 c -0.277,0 -0.500226,-0.223229 -0.500226,-0.500229 v -4.499983 c 0,-0.277 0.223226,-0.49971 0.500226,-0.49971 z m 8.000029,0 h 4.499983 c 0.277001,0 0.50023,0.22271 0.50023,0.49971 v 4.499983 c 0,0.277 -0.223229,0.500229 -0.50023,0.500229 h -4.499983 c -0.277,0 -0.500226,-0.223229 -0.500226,-0.500229 v -4.499983 c 0,-0.277 0.223226,-0.49971 0.500226,-0.49971 z"
         style="opacity:1;vector-effect:none;fill:#222222;fill-opacity:1;fill-rule:evenodd;stroke:none;stroke-width:0.2;stroke-linecap:butt;stroke-linejoin:miter;stroke-miterlimit:4;stroke-dasharray:none;stroke-dashoffset:0;stroke-opacity:1" />
    </g>
  </g>
</svg>
